<svg data-v-423bf9ae="" xmlns="http://www.w3.org/2000/svg" viewBox="0 0 207.02255066860812 60" class="font"><!----><!----><!----><g data-v-423bf9ae="" id="3ac492ef-8b7e-4786-8743-d0017213bf31" fill="white" transform="matrix(4.51127813079263,0,0,4.51127813079263,-2.210523270530956,-3.1578949357994333)"><path d="M4.41 1.29C6.79 1.29 7.88 3.12 7.88 5.50C7.88 7.88 6.79 9.91 4.41 9.91L3.19 9.91L3.19 1.29ZM4.37 10.50C7.88 10.50 9.52 8.25 9.52 5.53C9.52 2.81 7.91 0.70 4.41 0.70L0.59 0.70L0.49 1.29L1.71 1.75L1.71 9.45L0.50 9.91L0.60 10.50ZM15.29 9.28C14.95 9.76 14.45 10.00 13.89 10.00C13.15 10.00 12.40 9.55 12.40 8.27L12.40 3.96L11.80 3.81L10.36 3.96L10.46 4.47L11.09 4.47L11.09 8.15C11.09 9.65 11.84 10.65 13.37 10.65C14.15 10.65 14.66 10.54 15.29 10.00L15.54 10.50L17.42 10.50L17.51 10.00L16.60 9.70L16.60 3.96L16.10 3.81L14.55 3.96L14.64 4.47L15.29 4.47ZM21.74 3.96L21.85 4.47L22.71 4.47L22.71 9.11C22.71 10.75 22.53 12.19 20.59 13.48L20.90 14C23.53 13.13 24.02 11.31 24.02 9.35L24.02 3.96L23.39 3.81ZM23.32 0.74C22.92 0.74 22.57 1.08 22.57 1.50C22.57 1.92 22.92 2.25 23.32 2.25C23.74 2.25 24.09 1.92 24.09 1.50C24.09 1.08 23.74 0.74 23.32 0.74ZM28.98 3.81C26.91 3.81 25.69 5.12 25.69 7.22C25.69 9.32 26.77 10.65 28.98 10.65C31.21 10.65 32.27 9.38 32.27 7.22C32.27 5.07 31.05 3.81 28.98 3.81ZM28.98 4.33C30.16 4.33 30.93 5.39 30.93 7.18C30.93 8.96 30.17 10.14 28.98 10.14C27.79 10.14 27.05 8.95 27.05 7.18C27.05 5.42 27.82 4.33 28.98 4.33ZM38.18 9.28C37.84 9.76 37.34 10.00 36.78 10.00C36.04 10.00 35.29 9.55 35.29 8.27L35.29 3.96L34.69 3.81L33.25 3.96L33.35 4.47L33.98 4.47L33.98 8.15C33.98 9.65 34.73 10.65 36.26 10.65C37.04 10.65 37.55 10.54 38.18 10.00L38.43 10.50L40.31 10.50L40.40 10.00L39.49 9.70L39.49 3.96L38.99 3.81L37.44 3.96L37.53 4.47L38.18 4.47ZM46.38 5.47L46.38 4.05C45.98 3.88 45.56 3.81 45.14 3.81C44.41 3.81 43.88 4.06 43.40 4.33L42.91 3.81L41.29 3.96L41.38 4.47L42.08 4.47L42.08 9.70L41.17 10.00L41.27 10.50L44.21 10.50L44.32 10.00L43.40 9.70L43.40 4.84C43.89 4.66 44.49 4.47 44.88 4.47C45.22 4.47 45.37 4.51 45.57 4.58L45.88 5.57Z"></path></g><!----><!----></svg>